<svg xmlns="http://www.w3.org/2000/svg" viewBox="0 0 512 512" fill="none">
  <defs>
    <linearGradient id="bg" x1="0" y1="0" x2="512" y2="512" gradientUnits="userSpaceOnUse">
      <stop offset="0%" stop-color="#2563eb"/>
      <stop offset="100%" stop-color="#1d4ed8"/>
    </linearGradient>
    <linearGradient id="accent" x1="180" y1="160" x2="332" y2="352" gradientUnits="userSpaceOnUse">
      <stop offset="0%" stop-color="#ffffff"/>
      <stop offset="100%" stop-color="#dbeafe"/>
    </linearGradient>
  </defs>
  <!-- Full bleed background for maskable safe zone -->
  <rect width="512" height="512" fill="#2563eb"/>
  <!-- Rounded square badge -->
  <rect width="512" height="512" rx="112" fill="url(#bg)"/>
  <!-- Open book / knowledge wings — inset for maskable safe zone -->
  <path d="M256 148c-40 0-80 13-108 37v7c28-20 68-30 108-30s80 10 108 30v-7c-28-24-68-37-108-37z" fill="rgba(255,255,255,0.25)"/>
  <!-- Stylised S learning path — centered in 80% safe zone -->
  <path d="M300 192c-36-14-78-7-100 21s-14 64 14 85 64 25 85 7" stroke="url(#accent)" stroke-width="34" stroke-linecap="round" fill="none"/>
  <path d="M212 320c36 14 78 7 100-21s14-64-14-85" stroke="url(#accent)" stroke-width="34" stroke-linecap="round" fill="none"/>
  <!-- Rising arrow tip — growth / progress -->
  <path d="M300 192l-3-28 24 17" stroke="#ffffff" stroke-width="22" stroke-linecap="round" stroke-linejoin="round" fill="none"/>
</svg>
